
Genre:Horror | Sci-Fi | Thriller
Language:English
IMDb:http://www.imdb.com/title/tt1300159/
Source:BluRay.x264.WiKi Thanks!
Subtitles:Romana

Format : AVI
Format/Info : Audio Video Interleave
File size : 997 MiB
Duration : 1h 30mn
Overall bit rate : 1 543 Kbps

Video
ID : 0
Format : MPEG-4 Visual
Format profile : Advanced Simple@L5
Format settings, BVOP : Yes
Format settings, QPel : No
Format settings, GMC : No warppoints
Format settings, Matrix : Default (H.263)
Codec ID : XVID
Codec ID/Hint : XviD
Duration : 1h 30mn
Bit rate : 1 085 Kbps
Width : 640 pixels
Height : 272 pixels
Display aspect ratio : 2.35:1
Frame rate : 23.976 fps
Color space : YUV
Chroma subsampling : 4:2:0
Bit depth : 8 bits
Scan type : Progressive
Bits/(Pixel*Frame) : 0.260
Stream size : 701 MiB (70%)
Writing library : XviD 1.2.1 (UTC 2008-12-04)

Audio
ID : 1
Format : AC-3
Format/Info : Audio Coding 3
Mode extension : CM (complete main)
Codec ID : 2000
Duration : 1h 30mn
Bit rate mode : Constant
Bit rate : 448 Kbps
Channel(s) : 6 channels
Channel positions : Front: L C R, Side: L R, LFE
Sampling rate : 48.0 KHz
Bit depth : 16 bits
Stream size : 289 MiB (29%)
Alignment : Aligned on interleaves
Interleave, duration : 42 ms (1.00 video frame)
Interleave, preload duration : 512 ms




Plot:
In 1989, a breakthrough in advanced parasitic research on Cuttyhunk Island, gave scientists a jump in human evolution..

 
http://leetleech.org/images/76264533591277739838.png
 
http://leetleech.org/images/33970929491632085157.png
 
http://leetleech.org/images/63081083045789168259.png
 
http://leetleech.org/images/45186140853809106301.png